<svg width="15" height="12" viewBox="0 0 15 12" fill="none" xmlns="http://www.w3.org/2000/svg">
<path d="M7.61797 3.06201C8.19411 3.06201 8.75734 3.23286 9.23638 3.55295C9.71542 3.87303 10.0888 4.32798 10.3093 4.86026C10.5297 5.39254 10.5874 5.97824 10.475 6.5433C10.3626 7.10837 10.0852 7.62743 9.67779 8.03482C9.2704 8.44221 8.75134 8.71966 8.18627 8.83206C7.62121 8.94446 7.03551 8.88677 6.50323 8.66629C5.97095 8.44581 5.516 8.07242 5.19592 7.59338C4.87583 7.11434 4.70501 6.55117 4.70501 5.97504C4.7058 5.2027 5.01295 4.46223 5.55907 3.91611C6.1052 3.36999 6.84564 3.06281 7.61797 3.06201ZM7.61797 7.58704C7.93699 7.58704 8.2489 7.49242 8.51415 7.31519C8.77941 7.13795 8.98612 6.88602 9.10821 6.59128C9.23029 6.29654 9.26224 5.97222 9.2 5.65933C9.13777 5.34644 8.98412 5.05905 8.75854 4.83347C8.53296 4.60788 8.24556 4.45427 7.93267 4.39203C7.61978 4.32979 7.29546 4.36171 7.00072 4.4838C6.70599 4.60588 6.45409 4.81262 6.27685 5.07788C6.09961 5.34314 6.005 5.65501 6.005 5.97403C6.00526 6.40174 6.17528 6.81185 6.47771 7.11429C6.78015 7.41673 7.19026 7.58677 7.61797 7.58704Z" fill="#9397A0"/>
<path d="M7.62 11.85C5.75071 11.8428 3.94422 11.1747 2.52002 9.96396C1.85424 9.53293 1.30692 8.94211 0.927979 8.24536C0.549039 7.54861 0.350525 6.76811 0.350525 5.97498C0.350525 5.18185 0.549039 4.40131 0.927979 3.70456C1.30692 3.00781 1.85424 2.417 2.52002 1.98596C3.94084 0.769567 5.74961 0.101074 7.62 0.101074C9.49038 0.101074 11.2992 0.769567 12.72 1.98596C13.386 2.41707 13.9335 3.00803 14.3126 3.70496C14.6916 4.40188 14.8902 5.18264 14.8902 5.97598C14.8902 6.76933 14.6916 7.55005 14.3126 8.24698C13.9335 8.94391 13.386 9.53486 12.72 9.96597C11.2954 11.1759 9.48901 11.8433 7.62 11.85ZM7.62 1.39996C4.40499 1.39996 1.65002 3.91598 1.65002 5.97498C1.65002 8.03398 4.40499 10.55 7.62 10.55C10.835 10.55 13.591 8.03398 13.591 5.97498C13.591 3.91598 10.836 1.39996 7.62 1.39996Z" fill="#9397A0"/>
</svg>
