<svg width="20" height="20" viewBox="0 0 20 20" fill="none" xmlns="http://www.w3.org/2000/svg">
<g clip-path="url(#clip0_126_10)">
<path fill-rule="evenodd" clip-rule="evenodd" d="M0 11.713C0 6.08198 0.614007 6.47498 3.91901 3.41298C5.36501 2.24898 7.61902 0.00299072 9.55802 0.00299072C11.497 0.00299072 13.795 2.23798 15.258 3.41298C18.563 6.47798 19.176 6.08498 19.176 11.713C19.176 20 17.217 20 9.59 20C1.963 20 0 20 0 11.713ZM2 11.3694C2 6.86392 2.48029 7.17837 5.06556 4.7284C6.19666 3.79706 7.9598 2 9.47654 2C10.9933 2 12.7908 3.78826 13.9352 4.7284C16.5205 7.18077 17 6.86632 17 11.3694C17 18 15.4676 18 9.50156 18C3.53551 18 2 18 2 11.3694Z" fill="#9397A0"/>
<path d="M12.894 14.885H7.07901C6.8801 14.885 6.68933 14.806 6.54868 14.6653C6.40802 14.5247 6.32901 14.3339 6.32901 14.135C6.32901 13.9361 6.40802 13.7453 6.54868 13.6047C6.68933 13.464 6.8801 13.385 7.07901 13.385H12.894C13.0929 13.385 13.2837 13.464 13.4243 13.6047C13.565 13.7453 13.644 13.9361 13.644 14.135C13.644 14.3339 13.565 14.5247 13.4243 14.6653C13.2837 14.806 13.0929 14.885 12.894 14.885Z" fill="#9397A0"/>
</g>
<defs>
<clipPath id="clip0_126_10">
<rect width="20" height="20" fill="white"/>
</clipPath>
</defs>
</svg>
