<svg width="20" height="20" viewBox="0 0 20 20" fill="none" xmlns="http://www.w3.org/2000/svg">
<path fill-rule="evenodd" clip-rule="evenodd" d="M-7.62939e-06 11.713C-7.62939e-06 6.08198 0.613999 6.47498 3.919 3.41298C5.365 2.24898 7.61901 0.00299072 9.55801 0.00299072C11.497 0.00299072 13.795 2.23798 15.258 3.41298C18.563 6.47798 19.176 6.08498 19.176 11.713C19.176 20 17.217 20 9.58999 20C1.96299 20 -7.62939e-06 20 -7.62939e-06 11.713Z" fill="#5474FD"/>
<path d="M12.894 14.885H7.07901C6.8801 14.885 6.68933 14.806 6.54868 14.6653C6.40802 14.5247 6.32901 14.3339 6.32901 14.135C6.32901 13.9361 6.40802 13.7453 6.54868 13.6047C6.68933 13.464 6.8801 13.385 7.07901 13.385H12.894C13.0929 13.385 13.2837 13.464 13.4243 13.6047C13.565 13.7453 13.644 13.9361 13.644 14.135C13.644 14.3339 13.565 14.5247 13.4243 14.6653C13.2837 14.806 13.0929 14.885 12.894 14.885Z" fill="white"/>
</svg>
