<svg width="19" height="24" viewBox="0 0 19 24" fill="none" xmlns="http://www.w3.org/2000/svg">
<g clip-path="url(#clip0_126_13)">
<path d="M8.38502 3.24999C9.43429 3.22787 10.4739 3.45467 11.4186 3.91182C12.3633 4.36897 13.1862 5.04344 13.82 5.87998C14.8773 7.2559 15.4648 8.93501 15.496 10.67C15.496 11.095 15.483 11.403 15.473 11.65C15.441 12.422 15.441 12.422 16.24 14.18L16.256 14.218C16.4707 14.7098 16.5568 15.2481 16.5062 15.7823C16.4557 16.3166 16.2701 16.8292 15.967 17.272C15.0729 18.3557 13.8567 19.1263 12.495 19.472C9.81901 20.3096 6.95102 20.3096 4.27503 19.472C2.91325 19.1264 1.69705 18.3558 0.803011 17.272C0.500052 16.8291 0.314664 16.3164 0.264285 15.7822C0.213905 15.248 0.300195 14.7097 0.515017 14.218L0.531008 14.18C1.33101 12.423 1.331 12.423 1.297 11.65C1.287 11.403 1.27402 11.095 1.27402 10.669C1.3049 8.93412 1.89205 7.25503 2.94901 5.87898C3.58299 5.04249 4.40616 4.36811 5.35105 3.91113C6.29594 3.45416 7.33566 3.22759 8.38502 3.24999Z" fill="#5474FD"/>
<path d="M8.37898 23.839C7.83349 23.8323 7.29571 23.7093 6.80162 23.478C6.30753 23.2468 5.86853 22.9126 5.51399 22.498C5.38139 22.3496 5.31317 22.1546 5.32433 21.9559C5.33549 21.7572 5.42511 21.5711 5.5735 21.4385C5.72189 21.3059 5.91686 21.2377 6.11556 21.2488C6.31425 21.26 6.50037 21.3496 6.63298 21.498C6.84772 21.7542 7.11461 21.9618 7.41585 22.1068C7.71709 22.2518 8.04576 22.331 8.37999 22.339C8.71516 22.3314 9.04486 22.2524 9.34712 22.1074C9.64939 21.9624 9.91728 21.7546 10.133 21.498C10.1984 21.4239 10.2779 21.3635 10.3668 21.3203C10.4557 21.2771 10.5523 21.2518 10.651 21.246C10.7497 21.2403 10.8486 21.254 10.9419 21.2866C11.0352 21.3191 11.1212 21.3698 11.1949 21.4357C11.2686 21.5016 11.3285 21.5815 11.3712 21.6706C11.4139 21.7598 11.4386 21.8565 11.4439 21.9552C11.4491 22.0539 11.4347 22.1527 11.4016 22.2459C11.3685 22.339 11.3173 22.4247 11.251 22.498C10.8953 22.9131 10.4551 23.2475 9.95986 23.4787C9.46456 23.71 8.92558 23.8328 8.37898 23.839Z" fill="#5474FD"/>
<path d="M14.541 8.34302C16.7501 8.34302 18.541 6.55216 18.541 4.34302C18.541 2.13388 16.7501 0.343018 14.541 0.343018C12.3319 0.343018 10.541 2.13388 10.541 4.34302C10.541 6.55216 12.3319 8.34302 14.541 8.34302Z" fill="#EF2121"/>
<path d="M14.541 1.34302C13.9477 1.34302 13.3676 1.51896 12.8743 1.84861C12.3809 2.17825 11.9964 2.64679 11.7694 3.19497C11.5423 3.74315 11.4829 4.34635 11.5986 4.92829C11.7144 5.51023 12.0001 6.04478 12.4197 6.46434C12.8392 6.8839 13.3738 7.16962 13.9557 7.28537C14.5377 7.40113 15.1409 7.34172 15.6891 7.11466C16.2372 6.88759 16.7058 6.50308 17.0354 6.00973C17.3651 5.51638 17.541 4.93636 17.541 4.34302C17.541 3.54737 17.2249 2.78431 16.6623 2.2217C16.0997 1.65909 15.3366 1.34302 14.541 1.34302ZM14.541 0.343018C15.3321 0.343018 16.1055 0.577614 16.7633 1.01714C17.4211 1.45666 17.9338 2.08138 18.2365 2.81228C18.5393 3.54319 18.6185 4.34745 18.4641 5.12338C18.3098 5.8993 17.9288 6.61203 17.3694 7.17144C16.81 7.73085 16.0973 8.11182 15.3214 8.26616C14.5454 8.4205 13.7412 8.34129 13.0103 8.03854C12.2794 7.73579 11.6546 7.22309 11.2151 6.5653C10.7756 5.9075 10.541 5.13414 10.541 4.34302C10.541 3.28215 10.9624 2.26474 11.7126 1.51459C12.4627 0.764445 13.4801 0.343018 14.541 0.343018Z" fill="white"/>
</g>
<defs>
<clipPath id="clip0_126_13">
<rect width="19" height="24" fill="white"/>
</clipPath>
</defs>
</svg>
