<svg width="21" height="21" viewBox="0 0 21 21" fill="none" xmlns="http://www.w3.org/2000/svg">
<path d="M9.561 0.25C11.4025 0.25 13.2027 0.796077 14.7339 1.81918C16.2651 2.84229 17.4585 4.29647 18.1632 5.99783C18.868 7.6992 19.0524 9.57133 18.6931 11.3775C18.3338 13.1836 17.447 14.8427 16.1449 16.1449C14.8427 17.447 13.1836 18.3338 11.3775 18.6931C9.57133 19.0524 7.6992 18.868 5.99784 18.1632C4.29648 17.4585 2.8423 16.2651 1.81919 14.7339C0.796085 13.2027 0.25 11.4025 0.25 9.56099C0.252911 7.09245 1.23483 4.72587 2.98035 2.98035C4.72587 1.23483 7.09247 0.252911 9.561 0.25ZM9.561 17.372C11.1059 17.372 12.616 16.9139 13.9006 16.0556C15.1851 15.1973 16.1862 13.9774 16.7774 12.5501C17.3686 11.1229 17.5233 9.55233 17.2219 8.03714C16.9205 6.52195 16.1766 5.13017 15.0842 4.03778C13.9918 2.94539 12.6 2.20147 11.0849 1.90009C9.56967 1.5987 7.99914 1.75338 6.57186 2.34457C5.14459 2.93577 3.92467 3.93692 3.06639 5.22144C2.20811 6.50595 1.75 8.01612 1.75 9.56099C1.75238 11.6319 2.57609 13.6172 4.04042 15.0816C5.50475 16.5459 7.49013 17.3696 9.561 17.372Z" fill="white"/>
<path d="M18.186 16.024C18.6134 16.0242 19.0312 16.1511 19.3864 16.3887C19.7417 16.6264 20.0185 16.964 20.1819 17.3589C20.3453 17.7539 20.3879 18.1884 20.3043 18.6076C20.2207 19.0267 20.0147 19.4117 19.7124 19.7138C19.41 20.0158 19.0249 20.2215 18.6056 20.3047C18.1864 20.3879 17.7519 20.3449 17.3571 20.1811C16.9623 20.0174 16.6249 19.7402 16.3877 19.3848C16.1504 19.0293 16.0238 18.6114 16.024 18.184C16.0245 17.6109 16.2526 17.0615 16.658 16.6565C17.0634 16.2515 17.613 16.024 18.186 16.024ZM18.186 18.846C18.3167 18.8458 18.4443 18.8069 18.5529 18.7342C18.6614 18.6615 18.746 18.5582 18.7959 18.4375C18.8458 18.3167 18.8588 18.1839 18.8333 18.0558C18.8077 17.9277 18.7448 17.81 18.6524 17.7176C18.56 17.6252 18.4423 17.5623 18.3142 17.5367C18.1861 17.5112 18.0533 17.5242 17.9325 17.5741C17.8118 17.624 17.7085 17.7086 17.6358 17.8171C17.5631 17.9257 17.5242 18.0533 17.524 18.184C17.524 18.3596 17.5938 18.528 17.7179 18.6521C17.8421 18.7762 18.0104 18.846 18.186 18.846Z" fill="white"/>
</svg>
