<svg width="17" height="17" viewBox="0 0 17 17" fill="none" xmlns="http://www.w3.org/2000/svg">
<path d="M8.34302 0.399994C9.96344 0.399994 11.5475 0.880503 12.8948 1.78076C14.2421 2.68102 15.2923 3.9606 15.9124 5.45767C16.5325 6.95475 16.6947 8.60209 16.3786 10.1914C16.0625 11.7807 15.2822 13.2405 14.1364 14.3863C12.9905 15.5321 11.5307 16.3124 9.94141 16.6286C8.35212 16.9447 6.70478 16.7825 5.2077 16.1624C3.71063 15.5422 2.43105 14.4921 1.53079 13.1448C0.630534 11.7974 0.150024 10.2134 0.150024 8.59299C0.151878 6.42064 1.01567 4.33781 2.55176 2.80173C4.08784 1.26564 6.17067 0.401848 8.34302 0.399994ZM8.34302 15.587C9.7261 15.587 11.0781 15.1769 12.2281 14.4085C13.3781 13.6401 14.2744 12.5479 14.8037 11.2701C15.333 9.99231 15.4715 8.58625 15.2017 7.22974C14.9318 5.87323 14.2658 4.62719 13.2878 3.6492C12.3099 2.67121 11.0638 2.00521 9.70731 1.73538C8.3508 1.46556 6.94473 1.60402 5.66693 2.1333C4.38913 2.66258 3.29697 3.5589 2.52856 4.70889C1.76016 5.85889 1.35004 7.21091 1.35004 8.59399C1.35189 10.4481 2.08923 12.2257 3.40027 13.5367C4.71131 14.8478 6.48893 15.5852 8.34302 15.587Z" fill="#9397A0"/>
<path d="M11.7841 9.823H11.7741L8.05508 9.76199C7.89769 9.75937 7.74764 9.695 7.63727 9.58276C7.5269 9.47052 7.46507 9.31943 7.46509 9.16202V5.18301C7.46509 5.02388 7.52829 4.87125 7.64081 4.75873C7.75333 4.64621 7.90596 4.58301 8.06509 4.58301C8.22422 4.58301 8.37683 4.64621 8.48935 4.75873C8.60187 4.87125 8.66507 5.02388 8.66507 5.18301V8.57199L11.7931 8.62302C11.9522 8.62434 12.1043 8.68882 12.2159 8.80228C12.3275 8.91574 12.3894 9.06887 12.3881 9.228C12.3868 9.38713 12.3223 9.53923 12.2088 9.65082C12.0953 9.7624 11.9422 9.82432 11.7831 9.823H11.7841Z" fill="#9397A0"/>
</svg>
