<svg width="9" height="16" viewBox="0 0 9 16" fill="none" xmlns="http://www.w3.org/2000/svg">
<path d="M7.92603 15.05C7.80205 15.05 7.68006 15.019 7.57104 14.96C6.41596 14.319 5.30836 13.5958 4.25696 12.796C1.92996 11.011 0.75 9.36402 0.75 7.90202C0.75 6.44002 1.92996 4.79102 4.25696 3.00202C5.3083 2.20184 6.41591 1.4783 7.57104 0.837013C7.74573 0.746605 7.94889 0.728425 8.13684 0.786415C8.32479 0.844405 8.48243 0.973925 8.57581 1.14704C8.66918 1.32016 8.69088 1.52301 8.63611 1.71192C8.58134 1.90084 8.45446 2.0607 8.28296 2.15702C7.19382 2.76429 6.14894 3.44764 5.15601 4.202C3.28201 5.643 2.25 6.95602 2.25 7.90202C2.25 8.84802 3.28201 10.155 5.15601 11.595C6.14896 12.3493 7.19384 13.0327 8.28296 13.64C8.42993 13.7193 8.54623 13.8454 8.6134 13.9983C8.68058 14.1512 8.6948 14.3222 8.65381 14.4841C8.61282 14.646 8.51893 14.7896 8.38708 14.8921C8.25524 14.9946 8.09303 15.0502 7.92603 15.05Z" fill="white"/>
</svg>
