<svg width="15" height="19" viewBox="0 0 15 19" fill="none" xmlns="http://www.w3.org/2000/svg">
<path fill-rule="evenodd" clip-rule="evenodd" d="M7.47 0C1.083 0 0.00399938 0.932001 0.00399938 8.429C0.00399938 16.822 -0.153005 19 1.44299 19C3.03899 19 5.643 15.316 7.47 15.316C9.297 15.316 11.9 19 13.5 19C15.1 19 14.939 16.822 14.939 8.429C14.936 0.932001 13.857 0 7.47 0Z" fill="white"/>
<path d="M10.9 7.468H4.04504C3.84613 7.468 3.65536 7.38899 3.51471 7.24834C3.37406 7.10768 3.29504 6.91691 3.29504 6.718C3.29504 6.51909 3.37406 6.32832 3.51471 6.18767C3.65536 6.04702 3.84613 5.968 4.04504 5.968H10.9C11.0989 5.968 11.2897 6.04702 11.4304 6.18767C11.571 6.32832 11.65 6.51909 11.65 6.718C11.65 6.91691 11.571 7.10768 11.4304 7.24834C11.2897 7.38899 11.0989 7.468 10.9 7.468Z" fill="#BFBFBF"/>
</svg>
