<svg width="17" height="21" viewBox="0 0 17 21" fill="none" xmlns="http://www.w3.org/2000/svg">
<g clip-path="url(#clip0_126_7)">
<path d="M8.47 0.25C11.828 0.25 13.888 0.513003 15.152 1.897C16.435 3.302 16.686 5.723 16.686 9.429C16.686 10.1623 16.686 10.85 16.686 11.492C16.696 17.35 16.7 19.323 15.768 20.257C15.6004 20.4213 15.4011 20.5498 15.1823 20.6345C14.9634 20.7193 14.7295 20.7586 14.495 20.75C13.448 20.75 12.352 19.813 11.195 18.822C10.279 18.04 9.13999 17.066 8.47198 17.066C7.80398 17.066 6.66499 18.04 5.74899 18.822C4.58799 19.814 3.492 20.75 2.449 20.75C2.21446 20.7586 1.98061 20.7193 1.76175 20.6345C1.54289 20.5498 1.34358 20.4213 1.17599 20.257C0.243995 19.323 0.247995 17.35 0.257995 11.493C0.257995 10.851 0.257995 10.163 0.257995 9.429C0.257995 5.723 0.508993 3.303 1.79199 1.897C3.05199 0.513003 5.112 0.25 8.47 0.25Z" fill="#5474FD"/>
<path d="M11.9 8.46802H5.04501C4.8461 8.46802 4.65533 8.389 4.51468 8.24835C4.37403 8.1077 4.29501 7.91693 4.29501 7.71802C4.29501 7.51911 4.37403 7.32834 4.51468 7.18768C4.65533 7.04703 4.8461 6.96802 5.04501 6.96802H11.9C12.0989 6.96802 12.2897 7.04703 12.4303 7.18768C12.571 7.32834 12.65 7.51911 12.65 7.71802C12.65 7.91693 12.571 8.1077 12.4303 8.24835C12.2897 8.389 12.0989 8.46802 11.9 8.46802Z" fill="white"/>
</g>
<defs>
<clipPath id="clip0_126_7">
<rect width="17" height="21" fill="white"/>
</clipPath>
</defs>
</svg>
