<svg width="19" height="19" viewBox="0 0 19 19" fill="none" xmlns="http://www.w3.org/2000/svg">
<path d="M9.14999 18.056C5.76399 18.056 3.636 17.438 2.25 16.056C0.864 14.674 0.25 12.543 0.25 9.15598C0.25 5.76898 0.868 3.64198 2.25 2.25598C3.632 0.869981 5.76299 0.255981 9.14999 0.255981C12.537 0.255981 14.664 0.873981 16.05 2.25598C17.436 3.63798 18.05 5.76898 18.05 9.15598C18.05 12.543 17.432 14.67 16.05 16.056C14.668 17.442 12.539 18.056 9.14999 18.056ZM9.14999 1.74997C6.19299 1.74997 4.393 2.23196 3.311 3.31396C2.229 4.39596 1.74701 6.19598 1.74701 9.15298C1.74701 12.11 2.229 13.91 3.311 14.992C4.393 16.074 6.19299 16.556 9.14999 16.556C12.107 16.556 13.907 16.074 14.989 14.992C16.071 13.91 16.553 12.11 16.553 9.15298C16.553 6.19598 16.071 4.39596 14.989 3.31396C13.907 2.23196 12.109 1.74997 9.14999 1.74997Z" fill="white"/>
<path d="M7.845 5.33299C8.90164 5.55762 9.8969 6.00902 10.762 6.65599C12.914 8.09099 12.914 8.77001 12.914 9.02501C12.914 9.28001 12.914 9.959 10.801 11.394C9.93682 12.0521 8.93586 12.5077 7.872 12.727C7.73636 12.7318 7.60113 12.7091 7.47448 12.6603C7.34783 12.6115 7.23237 12.5376 7.135 12.443C6.973 12.282 6.54302 11.852 6.55502 9.006C6.56702 6.176 6.979 5.764 7.134 5.606C7.22796 5.51488 7.33941 5.44372 7.4616 5.39681C7.58379 5.34989 7.7142 5.32817 7.845 5.33299ZM11.328 9.03301C10.8624 8.56284 10.3412 8.15113 9.776 7.80699C9.27391 7.47267 8.74276 7.18417 8.18899 6.94499C8.0953 7.63328 8.05086 8.32737 8.05599 9.02199C8.04295 9.73092 8.08577 10.4398 8.18402 11.142C8.74863 10.9043 9.28827 10.6112 9.79501 10.267C10.3553 9.91906 10.8703 9.50289 11.328 9.028V9.03301Z" fill="white"/>
</svg>
