<svg width="16" height="22" viewBox="0 0 16 22" fill="none" xmlns="http://www.w3.org/2000/svg">
<g clip-path="url(#clip0_126_4)">
<path d="M7.84497 21.012C6.1389 21.0772 4.43343 20.8693 2.79303 20.396C0.69303 19.671 0.25 18.359 0.25 17.387C0.307233 16.6222 0.553695 15.8837 0.967224 15.2378C1.38075 14.5919 1.94839 14.059 2.61902 13.687C4.19032 12.726 5.99598 12.2165 7.83783 12.2144C9.67968 12.2123 11.4865 12.7177 13.06 13.675C13.7327 14.0438 14.3026 14.5748 14.718 15.2197C15.1335 15.8646 15.3813 16.603 15.439 17.368C15.439 18.341 15 19.654 12.906 20.386C11.2639 20.8669 9.55472 21.0783 7.84497 21.012Z" fill="#5474FD"/>
<path d="M7.83698 10.524H7.80604C6.44072 10.5199 5.13281 9.97413 4.16956 9.00653C3.20632 8.03893 2.66647 6.7286 2.66852 5.36328C2.67058 3.99796 3.2144 2.68928 4.18055 1.72458C5.1467 0.75988 6.45616 0.218018 7.82148 0.218018C9.1868 0.218018 10.4963 0.75988 11.4625 1.72458C12.4286 2.68928 12.9724 3.99796 12.9745 5.36328C12.9765 6.7286 12.4367 8.03893 11.4735 9.00653C10.5102 9.97413 9.20229 10.5199 7.83698 10.524Z" fill="#5474FD"/>
</g>
<defs>
<clipPath id="clip0_126_4">
<rect width="16" height="22" fill="white"/>
</clipPath>
</defs>
</svg>
