<svg width="16" height="22" viewBox="0 0 16 22" fill="none" xmlns="http://www.w3.org/2000/svg">
<path d="M7.84497 21.012C6.1389 21.0772 4.43343 20.8693 2.79303 20.396C0.69303 19.671 0.25 18.359 0.25 17.387C0.307233 16.6222 0.553695 15.8837 0.967224 15.2378C1.38075 14.5919 1.94839 14.059 2.61902 13.687C4.19032 12.726 5.99598 12.2165 7.83783 12.2144C9.67968 12.2123 11.4865 12.7177 13.06 13.675C13.7327 14.0438 14.3026 14.5748 14.718 15.2197C15.1335 15.8646 15.3813 16.603 15.439 17.368C15.439 18.341 15 19.654 12.906 20.386C11.2639 20.8669 9.55472 21.0783 7.84497 21.012ZM7.84497 13.712C6.29176 13.6965 4.76607 14.122 3.44501 14.939C2.98547 15.179 2.5913 15.5274 2.29651 15.9539C2.00172 16.3804 1.81515 16.8722 1.75299 17.387C1.75299 18.797 3.80402 19.512 7.84802 19.512C11.892 19.512 13.942 18.79 13.942 17.366C13.8787 16.8521 13.6906 16.3616 13.3943 15.937C13.0981 15.5124 12.7025 15.1667 12.242 14.93C10.92 14.1187 9.39599 13.6966 7.84497 13.712Z" fill="#9397A0"/>
<path d="M7.83698 10.524H7.80604C6.44072 10.5199 5.13281 9.97413 4.16956 9.00653C3.20632 8.03893 2.66647 6.7286 2.66852 5.36328C2.67058 3.99796 3.2144 2.68928 4.18055 1.72458C5.1467 0.75988 6.45616 0.218018 7.82148 0.218018C9.1868 0.218018 10.4963 0.75988 11.4625 1.72458C12.4286 2.68928 12.9724 3.99796 12.9745 5.36328C12.9765 6.7286 12.4367 8.03893 11.4735 9.00653C10.5102 9.97413 9.20229 10.5199 7.83698 10.524ZM7.83698 1.75C7.35936 1.74816 6.88606 1.84041 6.4441 2.02148C6.00213 2.20256 5.6002 2.46893 5.26118 2.80536C4.92215 3.14179 4.65268 3.54168 4.46821 3.98224C4.28373 4.4228 4.18782 4.8954 4.18598 5.37302C4.18414 5.85063 4.27645 6.32394 4.45753 6.7659C4.6386 7.20786 4.90491 7.60983 5.24134 7.94885C5.57777 8.28788 5.97772 8.55732 6.41828 8.74179C6.85884 8.92627 7.33141 9.02218 7.80903 9.02402H7.83698C8.80157 9.02402 9.72669 8.64081 10.4088 7.95874C11.0908 7.27667 11.474 6.35159 11.474 5.38699C11.474 4.4224 11.0908 3.49732 10.4088 2.81525C9.72669 2.13318 8.80157 1.75 7.83698 1.75Z" fill="#9397A0"/>
</svg>
