<svg width="17" height="17" viewBox="0 0 17 17" fill="none" xmlns="http://www.w3.org/2000/svg">
<path d="M14.69 0.249994C15.0618 0.227973 15.4335 0.296604 15.773 0.449991C15.9053 0.519983 16.0135 0.627943 16.084 0.759989C16.269 1.10699 16.417 1.70999 16.117 3.55099C15.3778 7.57831 14.1315 11.4958 12.408 15.21C12.281 15.5078 12.0747 15.7652 11.8117 15.954C11.5486 16.1428 11.2388 16.2559 10.916 16.281C9.84699 16.281 8.97497 15.058 8.08897 12.315C7.69797 11.104 7.40599 9.90798 7.25999 9.26798C6.63699 9.12598 5.48998 8.847 4.31498 8.468C1.67498 7.627 0.426006 6.80999 0.267006 5.81899C0.193006 5.36199 0.316999 4.696 1.322 4.119C3.811 2.686 11.815 0.249994 14.69 0.249994ZM14.79 1.74999H14.69C12.529 1.951 10.3973 2.39376 8.335 3.06999C6.17673 3.65131 4.0794 4.43894 2.072 5.42199C1.96816 5.4785 1.87177 5.54769 1.78501 5.62799C1.93101 5.80399 2.54498 6.351 4.91398 7.091C6.49398 7.585 8.02597 7.90399 8.04197 7.90699C8.18516 7.9367 8.31656 8.00761 8.41996 8.11102C8.52336 8.21442 8.59429 8.34581 8.624 8.48899C8.624 8.50399 8.94702 10.037 9.44102 11.618C10.181 13.987 10.728 14.603 10.904 14.749C10.9821 14.6622 11.0493 14.5662 11.104 14.463C12.202 12.1961 13.069 9.82452 13.692 7.384C14.104 5.907 14.418 4.55799 14.603 3.48399C14.7179 2.91329 14.7791 2.33309 14.786 1.75099L14.79 1.74999Z" fill="#5474FD"/>
<path d="M7.89 9.39201C7.74155 9.39208 7.59644 9.34809 7.473 9.26562C7.34957 9.18315 7.25339 9.06591 7.19664 8.92874C7.13989 8.79157 7.12514 8.64065 7.15422 8.49508C7.1833 8.34951 7.25493 8.21584 7.36003 8.111L14.892 0.585001C14.9612 0.513402 15.044 0.456311 15.1355 0.417048C15.2271 0.377785 15.3255 0.357136 15.4251 0.356318C15.5247 0.3555 15.6234 0.374533 15.7156 0.412287C15.8077 0.450041 15.8914 0.50576 15.9618 0.576212C16.0322 0.646665 16.0879 0.730437 16.1255 0.822627C16.1632 0.914816 16.1821 1.01359 16.1812 1.11317C16.1803 1.21275 16.1596 1.31116 16.1202 1.40264C16.0809 1.49413 16.0237 1.57685 15.952 1.64601L8.42003 9.17001C8.35068 9.24012 8.26813 9.29583 8.17717 9.33393C8.08621 9.37203 7.98861 9.39177 7.89 9.39201Z" fill="#5474FD"/>
</svg>
