<svg width="17" height="18" viewBox="0 0 17 18" fill="none" xmlns="http://www.w3.org/2000/svg">
<path d="M8.48303 1.57001C11.566 1.57001 13.5 2.12902 14.754 3.38202C16.008 4.63502 16.567 6.56901 16.567 9.65201C16.567 12.735 16.008 14.669 14.754 15.922C13.5 17.175 11.566 17.734 8.48303 17.734C5.40003 17.734 3.46603 17.175 2.21303 15.922C0.960028 14.669 0.400024 12.735 0.400024 9.65201C0.400024 6.56901 0.959028 4.63502 2.21303 3.38202C3.46703 2.12902 5.40003 1.57001 8.48303 1.57001ZM8.48303 16.536C13.758 16.536 15.367 14.928 15.367 9.65302C15.367 4.37802 13.759 2.77002 8.48303 2.77002C3.20703 2.77002 1.60004 4.37802 1.60004 9.65302C1.60004 14.928 3.20803 16.537 8.48303 16.537V16.536Z" fill="#9397A0"/>
<path d="M15.7521 7.46902H1.22206C1.06293 7.46902 0.910328 7.4058 0.797806 7.29327C0.685284 7.18075 0.62207 7.02815 0.62207 6.86902C0.62207 6.70989 0.685284 6.55729 0.797806 6.44476C0.910328 6.33224 1.06293 6.26901 1.22206 6.26901H15.7521C15.9112 6.26901 16.0638 6.33224 16.1763 6.44476C16.2889 6.55729 16.3521 6.70989 16.3521 6.86902C16.3521 7.02815 16.2889 7.18075 16.1763 7.29327C16.0638 7.4058 15.9112 7.46902 15.7521 7.46902Z" fill="#9397A0"/>
<path d="M12.043 10.646H12.036C11.8769 10.646 11.7243 10.5828 11.6118 10.4703C11.4992 10.3578 11.436 10.2051 11.436 10.046C11.436 9.88686 11.4992 9.73426 11.6118 9.62173C11.7243 9.50921 11.8769 9.44601 12.036 9.44601H12.043C12.2022 9.44601 12.3548 9.50921 12.4673 9.62173C12.5798 9.73426 12.643 9.88686 12.643 10.046C12.643 10.2051 12.5798 10.3578 12.4673 10.4703C12.3548 10.5828 12.2022 10.646 12.043 10.646Z" fill="#9397A0"/>
<path d="M8.49402 10.646H8.48703C8.3279 10.646 8.17528 10.5828 8.06276 10.4703C7.95024 10.3578 7.88702 10.2051 7.88702 10.046C7.88702 9.88686 7.95024 9.73426 8.06276 9.62173C8.17528 9.50921 8.3279 9.44601 8.48703 9.44601H8.49402C8.65315 9.44601 8.80577 9.50921 8.91829 9.62173C9.03081 9.73426 9.09402 9.88686 9.09402 10.046C9.09402 10.2051 9.03081 10.3578 8.91829 10.4703C8.80577 10.5828 8.65315 10.646 8.49402 10.646Z" fill="#9397A0"/>
<path d="M4.93703 10.646H4.93002C4.77089 10.646 4.61827 10.5828 4.50575 10.4703C4.39323 10.3578 4.33002 10.2051 4.33002 10.046C4.33002 9.88686 4.39323 9.73426 4.50575 9.62173C4.61827 9.50921 4.77089 9.44601 4.93002 9.44601H4.93703C5.09616 9.44601 5.24876 9.50921 5.36128 9.62173C5.4738 9.73426 5.53702 9.88686 5.53702 10.046C5.53702 10.2051 5.4738 10.3578 5.36128 10.4703C5.24876 10.5828 5.09616 10.646 4.93703 10.646Z" fill="#9397A0"/>
<path d="M12.043 13.754H12.036C11.8769 13.754 11.7243 13.6908 11.6118 13.5783C11.4992 13.4658 11.436 13.3132 11.436 13.154C11.436 12.9949 11.4992 12.8423 11.6118 12.7297C11.7243 12.6172 11.8769 12.554 12.036 12.554H12.043C12.2022 12.554 12.3548 12.6172 12.4673 12.7297C12.5798 12.8423 12.643 12.9949 12.643 13.154C12.643 13.3132 12.5798 13.4658 12.4673 13.5783C12.3548 13.6908 12.2022 13.754 12.043 13.754Z" fill="#9397A0"/>
<path d="M8.49402 13.754H8.48703C8.3279 13.754 8.17528 13.6908 8.06276 13.5783C7.95024 13.4658 7.88702 13.3132 7.88702 13.154C7.88702 12.9949 7.95024 12.8423 8.06276 12.7297C8.17528 12.6172 8.3279 12.554 8.48703 12.554H8.49402C8.65315 12.554 8.80577 12.6172 8.91829 12.7297C9.03081 12.8423 9.09402 12.9949 9.09402 13.154C9.09402 13.3132 9.03081 13.4658 8.91829 13.5783C8.80577 13.6908 8.65315 13.754 8.49402 13.754Z" fill="#9397A0"/>
<path d="M4.93703 13.754H4.93002C4.77089 13.754 4.61827 13.6908 4.50575 13.5783C4.39323 13.4658 4.33002 13.3132 4.33002 13.154C4.33002 12.9949 4.39323 12.8423 4.50575 12.7297C4.61827 12.6172 4.77089 12.554 4.93002 12.554H4.93703C5.09616 12.554 5.24876 12.6172 5.36128 12.7297C5.4738 12.8423 5.53702 12.9949 5.53702 13.154C5.53702 13.3132 5.4738 13.4658 5.36128 13.5783C5.24876 13.6908 5.09616 13.754 4.93703 13.754Z" fill="#9397A0"/>
<path d="M11.718 4.23203C11.5589 4.23203 11.4063 4.1688 11.2938 4.05627C11.1813 3.94375 11.118 3.79115 11.118 3.63202V1C11.118 0.84087 11.1813 0.688266 11.2938 0.575745C11.4063 0.463223 11.5589 0.400024 11.718 0.400024C11.8772 0.400024 12.0298 0.463223 12.1423 0.575745C12.2548 0.688266 12.318 0.84087 12.318 1V3.63202C12.318 3.79115 12.2548 3.94375 12.1423 4.05627C12.0298 4.1688 11.8772 4.23203 11.718 4.23203Z" fill="#9397A0"/>
<path d="M5.256 4.23203C5.09687 4.23203 4.94426 4.1688 4.83174 4.05627C4.71922 3.94375 4.65601 3.79115 4.65601 3.63202V1C4.65601 0.921207 4.67152 0.843212 4.70168 0.770416C4.73183 0.697621 4.77603 0.63146 4.83174 0.575745C4.88746 0.520029 4.9536 0.475832 5.0264 0.445679C5.09919 0.415526 5.1772 0.400024 5.256 0.400024C5.33479 0.400024 5.41282 0.415526 5.48561 0.445679C5.55841 0.475832 5.62455 0.520029 5.68027 0.575745C5.73598 0.63146 5.78018 0.697621 5.81033 0.770416C5.84049 0.843212 5.856 0.921207 5.856 1V3.63202C5.856 3.79115 5.79279 3.94375 5.68027 4.05627C5.56775 4.1688 5.41513 4.23203 5.256 4.23203Z" fill="#9397A0"/>
</svg>
